<?xml version="1.0" encoding="iso-8859-1"?>
<!-- Generator: Adobe Illustrator 19.0.0, SVG Export Plug-In . SVG Version: 6.00 Build 0)  -->
<svg xmlns="http://www.w3.org/2000/svg" xmlns:xlink="http://www.w3.org/1999/xlink" version="1.1" id="Layer_1" x="0px" y="0px" viewBox="0 0 502 502" style="enable-background:new 0 0 502 502;" xml:space="preserve" width="512" height="512">
<g>
	<g>
		<path style="fill:#4D93E8;" d="M149,492L149,492c-28.167,0-51-22.833-51-51V61c0-28.166,22.833-51,51-51h0    c28.167,0,51,22.833,51,51v380C200,469.167,177.167,492,149,492z"/>
		<path d="M149,502c-33.636,0-61-27.364-61-61V61c0-33.636,27.364-61,61-61s61,27.364,61,61v380C210,474.636,182.636,502,149,502z     M149,20c-22.607,0-41,18.393-41,41v380c0,22.607,18.393,41,41,41s41-18.393,41-41V61C190,38.393,171.607,20,149,20z"/>
	</g>
	<g>
		<path style="fill:#4D93E8;" d="M353,492L353,492c-28.167,0-51-22.833-51-51V61c0-28.166,22.833-51,51-51h0    c28.166,0,51,22.833,51,51v380C404,469.167,381.167,492,353,492z"/>
		<path d="M353,502c-33.636,0-61-27.364-61-61V61c0-33.636,27.364-61,61-61s61,27.364,61,61v380C414,474.636,386.636,502,353,502z     M353,20c-22.607,0-41,18.393-41,41v380c0,22.607,18.393,41,41,41s41-18.393,41-41V61C394,38.393,375.607,20,353,20z"/>
	</g>
	<g>
		<path d="M130,90.613c-5.523,0-10-4.477-10-10V61c0-5.523,4.477-10,10-10s10,4.477,10,10v19.613    C140,86.136,135.523,90.613,130,90.613z"/>
	</g>
	<g>
		<path d="M130,363.335c-5.523,0-10-4.477-10-10v-235.56c0-5.523,4.477-10,10-10s10,4.477,10,10v235.56    C140,358.858,135.523,363.335,130,363.335z"/>
	</g>
</g>















</svg>
